<?xml version="1.0" encoding="utf-8"?>
<!-- Generator: Adobe Illustrator 23.0.3, SVG Export Plug-In . SVG Version: 6.00 Build 0)  -->
<svg version="1.1" id="레이어_1" xmlns="http://www.w3.org/2000/svg" xmlns:xlink="http://www.w3.org/1999/xlink" x="0px"
	 y="0px" viewBox="0 0 262.93 43.85" style="enable-background:new 0 0 262.93 43.85;" xml:space="preserve">
<style type="text/css">
	.st0{fill:#009041;}
	.st1{fill:#323232;}
	.st2{fill:url(#SVGID_1_);}
	.st3{fill:url(#SVGID_2_);}
	.st4{fill:#09893F;}
</style>
<path class="st0" d="M34.01,12.25c0.01-0.83,0.69-1.5,1.52-1.5c0.83,0.1,1.42,0.85,1.33,1.67c-0.08,0.7-0.63,1.25-1.33,1.33
	C34.7,13.75,34.02,13.08,34.01,12.25z M35.53,12.25v0.68c0.38-0.05,0.65-0.39,0.6-0.77c-0.04-0.32-0.29-0.56-0.6-0.6
	c-0.38-0.05-0.72,0.22-0.77,0.6c-0.05,0.38,0.22,0.72,0.6,0.77c0.06,0.01,0.11,0.01,0.17,0V12.25z"/>
<path class="st0" d="M32.64,16.52c0,0,4.39-6.66,11.86-2.83C44.5,13.69,40.91,20.68,32.64,16.52z M42.96,14.52l-8.41,1.94
	c1.44,0.75,3.12,0.9,4.67,0.42c1.46-0.39,2.78-1.22,3.77-2.36H42.96z M42.85,13.82c-1.4-0.59-2.94-0.75-4.43-0.45
	c-3,0.72-4,2.44-4,2.44l8.41-2L42.85,13.82z"/>
<path class="st1" d="M68.52,16.74c-1.14,0.01-2.28-0.1-3.39-0.34c-0.92-0.2-1.82-0.52-2.67-0.93c-0.71-0.36-1.39-0.81-2-1.32
	c-0.51-0.44-0.96-0.93-1.36-1.47c-0.34,0.55-0.76,1.05-1.24,1.48c-0.56,0.51-1.19,0.94-1.87,1.27c-0.81,0.4-1.66,0.71-2.54,0.92
	c-1.06,0.25-2.15,0.39-3.24,0.42v-3.81c0.92,0.01,1.83-0.12,2.71-0.38c0.78-0.22,1.5-0.61,2.11-1.14c0.61-0.55,1.08-1.23,1.36-2
	c0.34-0.94,0.51-1.93,0.51-2.93V5.02h-6.72V1.24h17.78v3.78H61.3v1.49c-0.02,1.03,0.19,2.06,0.61,3c0.35,0.76,0.88,1.43,1.54,1.94
	c0.69,0.49,1.47,0.85,2.29,1.06c0.91,0.24,1.85,0.38,2.79,0.41L68.52,16.74z M56.52,28.74c-0.63,0.02-1.26-0.09-1.85-0.31
	c-0.46-0.18-0.88-0.46-1.23-0.82c-0.31-0.33-0.55-0.72-0.7-1.14c-0.15-0.43-0.23-0.88-0.23-1.34v-7.25H57v7.28h21v3.6L56.52,28.74z
	 M73.52,20.34v-9.31h-5.46V7.25h5.42v-6.1h4.49v19.21L73.52,20.34z"/>
<path class="st1" d="M85.01,14.96c-0.63,0.01-1.26-0.09-1.85-0.31c-0.47-0.18-0.89-0.46-1.24-0.82c-0.31-0.33-0.55-0.73-0.71-1.16
	c-0.15-0.43-0.23-0.88-0.23-1.34V1.15h4.49v10h14.27v3.81H85.01z M85.66,28.78c-0.97,0.06-1.91-0.31-2.59-1
	c-0.59-0.65-0.91-1.51-0.88-2.39v-8.72h24.29v12.06L85.66,28.78z M102.08,20.44h-15.4v4.62h15.4L102.08,20.44z M106.48,11.08v4
	h-4.49V1.15h4.49v6.1h3.44v3.78L106.48,11.08z"/>
<path class="st1" d="M115.9,20.33c-0.52,0.01-1.04-0.09-1.53-0.28c-0.44-0.16-0.84-0.42-1.18-0.74c-0.32-0.31-0.57-0.69-0.74-1.1
	c-0.18-0.43-0.27-0.89-0.27-1.35V1.15h13.92v3.81h-9.42v11.59h9.45v3.78H115.9z M135.45,28.73v-17.7h-2.2v17.7h-4.51V1.15h4.49v6.1
	h2.2v-6.1h4.5v27.58H135.45z"/>
<path class="st1" d="M159.27,6.67c0.35,0.59,0.63,1.21,0.82,1.87c0.2,0.68,0.3,1.38,0.29,2.09c0.01,1.03-0.2,2.06-0.62,3
	c-0.4,0.91-0.98,1.74-1.7,2.43c-0.73,0.7-1.59,1.25-2.53,1.63c-0.95,0.39-1.97,0.59-3,0.59c-1.05,0.01-2.1-0.2-3.07-0.61
	c-0.93-0.39-1.78-0.95-2.51-1.64c-0.72-0.69-1.3-1.52-1.7-2.43c-0.41-0.95-0.63-1.97-0.62-3c0-0.71,0.1-1.41,0.31-2.09
	c0.2-0.65,0.47-1.28,0.8-1.88h-2.23v-3.9h6.88v-2.77h4.3v2.77h6.85v3.94H159.27z M166.05,28.73v-5.55h-21.31V19.4h25.68v9.33H166.05
	z M156.26,10.63c0-0.5-0.1-0.99-0.29-1.45c-0.18-0.46-0.46-0.87-0.81-1.22c-0.35-0.34-0.76-0.6-1.21-0.78
	c-0.47-0.16-0.97-0.24-1.47-0.22c-0.5,0-1,0.1-1.47,0.28c-0.45,0.18-0.86,0.45-1.21,0.78c-0.35,0.33-0.62,0.74-0.8,1.18
	c-0.2,0.46-0.3,0.95-0.3,1.45c0,0.99,0.4,1.94,1.1,2.64c0.35,0.33,0.76,0.59,1.21,0.77c0.47,0.19,0.97,0.28,1.47,0.28
	c0.5,0,1-0.09,1.47-0.28c0.45-0.17,0.86-0.44,1.21-0.77c0.71-0.69,1.11-1.65,1.1-2.64L156.26,10.63z M170.45,11.03v6.64h-4.49V1.15
	h4.49v6.1h3.44v3.78H170.45z"/>
<path class="st1" d="M175.53,26.34v-3.78h3.34V9.39h4.4v13.17h4.09V9.39h4.38v13.17h4.43V4.96h-19.62V1.15h24.05v21.41h2.07v3.78
	L175.53,26.34z"/>
<linearGradient id="SVGID_1_" gradientUnits="userSpaceOnUse" x1="210.1015" y1="35.9248" x2="259.2715" y2="20.5948" gradientTransform="matrix(1 0 0 -1 -0.26 46.96)">
	<stop  offset="0" style="stop-color:#009288"/>
	<stop  offset="0.19" style="stop-color:#0C9885"/>
	<stop  offset="0.54" style="stop-color:#2CA87C"/>
	<stop  offset="1" style="stop-color:#5FC26F"/>
</linearGradient>
<path class="st2" d="M205.33,26.34v-3.78h11.53v-5.45h4.4v5.45h11.62v3.78L205.33,26.34z M206.44,15.34v-3.75h4.3V4.9h-4.3V1.12
	h25.2V4.9h-4.59v6.69h4.59v3.78L206.44,15.34z M222.68,4.9h-7.62v6.69h7.62V4.9z"/>
<linearGradient id="SVGID_2_" gradientUnits="userSpaceOnUse" x1="212.6899" y1="44.1996" x2="261.8499" y2="28.8696" gradientTransform="matrix(1 0 0 -1 -0.26 46.96)">
	<stop  offset="0" style="stop-color:#009288"/>
	<stop  offset="0.19" style="stop-color:#0C9885"/>
	<stop  offset="0.54" style="stop-color:#2CA87C"/>
	<stop  offset="1" style="stop-color:#5FC26F"/>
</linearGradient>
<path class="st3" d="M238.85,15.03c-0.53,0.01-1.05-0.09-1.54-0.28c-0.44-0.17-0.83-0.42-1.17-0.74c-0.32-0.31-0.58-0.69-0.75-1.1
	c-0.17-0.43-0.26-0.89-0.26-1.35V1.15h17v3.69h-12.51v1.55h11.59v3.37h-11.59v1.58h12.55v3.69H238.85z M241.33,28.79
	c-0.52,0-1.04-0.05-1.55-0.17c-0.45-0.1-0.88-0.28-1.26-0.54c-0.36-0.25-0.65-0.6-0.83-1c-0.21-0.48-0.32-1-0.3-1.52v-4.67h21V19.8
	h-21v-3.47h25.5v7.78h-21v1.15h21v3.53H241.33z M258.4,15.09V9.67h-5.42V5.89h5.42V1.15h4.49v13.94H258.4z"/>
<path class="st1" d="M56.85,36.42c-0.18-0.21-0.39-0.37-0.64-0.48c-0.32-0.14-0.66-0.2-1-0.19c-0.34,0-0.68,0.07-1,0.19
	c-0.32,0.12-0.62,0.31-0.87,0.55c-1.05,0.95-1.13,2.57-0.18,3.62c0.06,0.06,0.12,0.13,0.18,0.18c0.25,0.24,0.55,0.43,0.87,0.55
	c0.32,0.12,0.66,0.19,1,0.19c0.34,0.01,0.68-0.05,1-0.19c0.25-0.11,0.46-0.27,0.64-0.48v2.06c-0.05-0.06-0.11-0.1-0.18-0.13h-0.1
	h-0.1c-0.16,0.01-0.31,0.04-0.46,0.08c-0.27,0.07-0.55,0.1-0.83,0.09c-0.57,0.01-1.13-0.1-1.66-0.3c-0.5-0.19-0.96-0.47-1.35-0.83
	c-0.38-0.36-0.69-0.8-0.9-1.28c-0.43-1.04-0.43-2.2,0-3.24c0.21-0.48,0.52-0.92,0.9-1.28c0.39-0.36,0.85-0.64,1.35-0.83
	c0.53-0.2,1.09-0.31,1.66-0.3c0.15-0.01,0.3-0.01,0.45,0l0.35,0.06l0.28,0.06h0.21c0.08,0,0.15-0.02,0.22-0.06l0.16-0.11V36.42z"/>
<path class="st1" d="M62.02,37.72v-2.76c0-0.09-0.03-0.18-0.08-0.26c-0.06-0.07-0.13-0.13-0.2-0.18h2c-0.08,0.05-0.15,0.11-0.2,0.18
	c-0.05,0.08-0.08,0.17-0.08,0.26v6.84c0,0.09,0.03,0.18,0.08,0.26c0.06,0.07,0.12,0.13,0.2,0.18h-2c0.07-0.05,0.14-0.11,0.2-0.18
	c0.05-0.08,0.08-0.17,0.08-0.26v-2.84h-2.5v2.81c-0.01,0.09,0.02,0.19,0.08,0.26c0.06,0.07,0.12,0.13,0.2,0.18h-2.06
	c0.08-0.05,0.14-0.11,0.2-0.18c0.06-0.07,0.09-0.17,0.08-0.26v-6.81c0.01-0.09-0.02-0.19-0.08-0.26c-0.05-0.07-0.12-0.13-0.2-0.18h2
	c-0.08,0.05-0.15,0.11-0.2,0.18c-0.06,0.07-0.09,0.17-0.08,0.26v2.75L62.02,37.72z"/>
<path class="st1" d="M68.81,42.42c-1.11,0-2.18-0.41-3-1.17c-0.38-0.37-0.68-0.81-0.9-1.29c-0.45-1-0.45-2.16,0-3.16
	c0.22-0.48,0.54-0.91,0.92-1.28c0.39-0.37,0.84-0.66,1.34-0.86c1.05-0.41,2.22-0.41,3.27,0c0.5,0.2,0.96,0.49,1.35,0.86
	c0.4,0.36,0.72,0.8,0.95,1.29c0.45,1,0.45,2.15,0,3.15c-0.22,0.48-0.53,0.92-0.92,1.28c-0.39,0.36-0.85,0.65-1.35,0.85
	C69.94,42.31,69.38,42.42,68.81,42.42z M68.81,35.75c-0.34,0-0.68,0.07-1,0.2c-0.33,0.13-0.63,0.32-0.88,0.56
	c-0.26,0.23-0.46,0.52-0.61,0.83c-0.14,0.31-0.22,0.65-0.22,1c0,0.35,0.08,0.69,0.22,1c0.27,0.66,0.77,1.19,1.42,1.49
	c0.67,0.27,1.43,0.27,2.1,0c0.33-0.13,0.63-0.32,0.89-0.56c0.25-0.24,0.46-0.52,0.6-0.84c0.15-0.31,0.23-0.65,0.23-1
	c-0.01-0.35-0.08-0.69-0.23-1c-0.14-0.31-0.35-0.6-0.6-0.83c-0.26-0.24-0.56-0.43-0.89-0.56C69.52,35.87,69.17,35.78,68.81,35.75z"
	/>
<path class="st1" d="M75.67,37.16L75.67,37.16v4.65c0,0.09,0.03,0.18,0.08,0.26c0.06,0.07,0.13,0.13,0.2,0.18h-2
	c0.07-0.05,0.14-0.11,0.2-0.18c0.05-0.08,0.08-0.17,0.08-0.26v-6.85c0-0.09-0.03-0.18-0.08-0.26c-0.06-0.07-0.12-0.13-0.2-0.18h1.79
	l3,5l0,0v-4.56c0-0.09-0.03-0.19-0.09-0.26c-0.05-0.07-0.12-0.13-0.2-0.18h2c-0.08,0.05-0.15,0.11-0.2,0.18
	c-0.05,0.08-0.08,0.17-0.08,0.26v6.84c0,0.09,0.03,0.18,0.08,0.26c0.06,0.07,0.12,0.13,0.2,0.18h-1.71L75.67,37.16z"/>
<path class="st1" d="M83.11,37.16L83.11,37.16v4.65c0,0.09,0.03,0.18,0.08,0.26c0.06,0.07,0.13,0.13,0.2,0.18h-2
	c0.07-0.05,0.14-0.11,0.2-0.18c0.05-0.08,0.08-0.17,0.08-0.26v-6.85c0-0.09-0.03-0.18-0.08-0.26c-0.06-0.07-0.12-0.13-0.2-0.18h1.81
	l3,5l0,0v-4.56c0-0.09-0.03-0.19-0.09-0.26c-0.05-0.07-0.12-0.13-0.2-0.18h2c-0.08,0.05-0.15,0.11-0.2,0.18
	c-0.05,0.08-0.08,0.17-0.08,0.26v6.84c0,0.09,0.03,0.18,0.08,0.26c0.06,0.07,0.12,0.13,0.2,0.18h-1.7L83.11,37.16z"/>
<path class="st1" d="M90.53,40.6l-0.17,0.42c-0.06,0.15-0.12,0.3-0.17,0.47c-0.05,0.13-0.07,0.26-0.08,0.4
	c-0.02,0.07-0.02,0.13,0,0.2c0.03,0.06,0.06,0.11,0.1,0.16h-2c0.08-0.09,0.16-0.19,0.23-0.29c0.08-0.11,0.14-0.22,0.18-0.35
	l2.26-5.85c0.06-0.15,0.12-0.3,0.18-0.47c0.05-0.13,0.07-0.26,0.08-0.4c0.02-0.07,0.02-0.13,0-0.2l-0.11-0.16h1.62l2.82,7.08
	c0.04,0.13,0.1,0.24,0.18,0.35c0.07,0.1,0.14,0.2,0.23,0.29h-2c0,0,0.07-0.1,0.1-0.16c0.03-0.06,0.05-0.13,0.05-0.2
	c-0.01-0.14-0.03-0.27-0.08-0.4c-0.06-0.17-0.11-0.32-0.17-0.47L93.6,40.6H90.53z M93.13,39.32l-1.1-3v-0.1l-1,3.13L93.13,39.32z"/>
<path class="st1" d="M98.41,34.53l1.67,4.5l0,0l1.71-4.5h1.64c-0.08,0.07-0.14,0.15-0.18,0.25c-0.01,0.08-0.01,0.17,0,0.25
	c0,0.08,0,0.15,0,0.23c0,0.1,0,0.21,0,0.31s0,0.22,0,0.33s0,0.19,0.05,0.26l0.83,5.44c0.02,0.14,0.06,0.27,0.11,0.4
	c0.03,0.09,0.08,0.18,0.15,0.25h-1.91c0.14-0.1,0.21-0.26,0.21-0.43c0.01-0.12,0.01-0.25,0-0.37c0-0.15-0.05-0.32-0.07-0.48
	l-0.48-3.62l0,0l-2.08,5.11l0,0l-2-5.11l0,0l-0.49,3.51c-0.05,0.27-0.08,0.48-0.11,0.64c-0.01,0.13-0.01,0.26,0,0.39
	c0,0.14,0.06,0.27,0.17,0.36h-1.89c0.07-0.07,0.12-0.16,0.16-0.25c0.05-0.13,0.09-0.26,0.11-0.4l0.83-5.44c0-0.07,0-0.15,0-0.26
	s0-0.22,0-0.33s0-0.21,0-0.31s0-0.17,0-0.23c0.01-0.08,0.01-0.17,0-0.25c-0.03-0.1-0.09-0.18-0.17-0.25H98.41z"/>
<path class="st1" d="M111,37.16L111,37.16v4.65c0,0.09,0.03,0.18,0.08,0.26c0.06,0.07,0.12,0.13,0.2,0.18h-2
	c0.08-0.05,0.14-0.11,0.2-0.18c0.06-0.07,0.09-0.17,0.09-0.26v-6.85c0-0.09-0.03-0.19-0.09-0.26c-0.05-0.07-0.12-0.13-0.2-0.18h1.81
	l3,5l0,0v-4.56c0.01-0.09-0.02-0.19-0.08-0.26c-0.05-0.07-0.12-0.13-0.2-0.18h2c-0.08,0.05-0.15,0.11-0.2,0.18
	c-0.06,0.07-0.09,0.17-0.08,0.26v6.84c-0.01,0.09,0.02,0.19,0.08,0.26c0.06,0.07,0.12,0.13,0.2,0.18h-1.7L111,37.16z"/>
<path class="st1" d="M118.42,40.6l-0.17,0.42c-0.06,0.15-0.12,0.3-0.17,0.47c-0.05,0.13-0.08,0.26-0.08,0.4
	c-0.02,0.07-0.02,0.13,0,0.2l0.11,0.16h-2c0.09-0.09,0.17-0.19,0.24-0.29c0.07-0.11,0.13-0.23,0.18-0.35l2.26-5.85
	c0.06-0.15,0.11-0.3,0.17-0.47c0.05-0.13,0.08-0.26,0.09-0.4c0-0.07-0.02-0.14-0.06-0.2c0-0.06-0.07-0.11-0.1-0.16h1.62l2.82,7.08
	c0.04,0.13,0.1,0.24,0.18,0.35c0.07,0.1,0.14,0.2,0.23,0.29h-2l0.11-0.16c0.02-0.07,0.02-0.13,0-0.2c0-0.14-0.03-0.27-0.08-0.4
	c0-0.17-0.11-0.32-0.16-0.47l-0.18-0.42H118.42z M121.02,39.32l-1.11-3v-0.1l-1,3.13L121.02,39.32z"/>
<path class="st1" d="M128.58,34.53v1.73c-0.02-0.06-0.05-0.12-0.09-0.17c-0.04-0.06-0.1-0.11-0.17-0.14
	c-0.1-0.05-0.21-0.08-0.32-0.1c-0.17-0.02-0.35-0.02-0.52,0h-0.59v6c0,0.09,0.02,0.18,0.07,0.26c0.06,0.07,0.12,0.13,0.2,0.18h-2
	c0.08-0.05,0.14-0.11,0.2-0.18c0.06-0.07,0.09-0.17,0.08-0.26v-6h-0.6c-0.17-0.02-0.34-0.02-0.51,0c-0.11,0.02-0.21,0.05-0.31,0.1
	c-0.07,0.03-0.13,0.08-0.18,0.14c-0.04,0.05-0.07,0.11-0.1,0.17v-1.73H128.58z"/>
<path class="st1" d="M129.15,42.25c0.08-0.05,0.14-0.11,0.2-0.18c0.06-0.07,0.09-0.17,0.08-0.26v-6.85
	c0.01-0.09-0.02-0.19-0.08-0.26c-0.05-0.07-0.12-0.13-0.2-0.18h2c-0.08,0.05-0.15,0.11-0.2,0.18c-0.06,0.07-0.09,0.17-0.08,0.26
	v6.84c-0.01,0.09,0.02,0.19,0.08,0.26c0.06,0.07,0.12,0.13,0.2,0.18L129.15,42.25z"/>
<path class="st1" d="M136.35,42.42c-0.56,0-1.11-0.11-1.63-0.32c-0.5-0.2-0.96-0.49-1.35-0.85c-0.38-0.37-0.69-0.8-0.91-1.28
	c-0.45-1-0.45-2.16,0-3.16c0.22-0.48,0.53-0.91,0.91-1.28c0.81-0.76,1.89-1.18,3-1.17c1.11-0.01,2.19,0.41,3,1.17
	c0.38,0.37,0.7,0.8,0.92,1.28c0.45,1,0.45,2.16,0,3.16c-0.22,0.48-0.54,0.91-0.92,1.28c-0.4,0.36-0.85,0.65-1.35,0.85
	C137.49,42.32,136.92,42.43,136.35,42.42z M136.35,35.75c-0.36-0.01-0.72,0.06-1.05,0.2c-0.33,0.13-0.62,0.32-0.88,0.56
	c-0.25,0.23-0.46,0.52-0.6,0.83c-0.15,0.31-0.22,0.65-0.23,1c0,0.35,0.08,0.69,0.23,1c0.14,0.32,0.35,0.6,0.6,0.84
	c0.26,0.24,0.55,0.43,0.88,0.56c0.33,0.14,0.69,0.21,1.05,0.2c0.36,0,0.72-0.06,1.06-0.2c0.33-0.13,0.63-0.32,0.88-0.56
	c0.26-0.24,0.47-0.52,0.61-0.84c0.15-0.31,0.23-0.65,0.23-1c-0.01-0.35-0.08-0.69-0.23-1c-0.15-0.31-0.35-0.6-0.61-0.83
	c-0.25-0.24-0.55-0.43-0.88-0.56C137.07,35.81,136.71,35.75,136.35,35.75z"/>
<path class="st1" d="M143.22,37.16L143.22,37.16v4.65c-0.01,0.09,0.02,0.19,0.08,0.26c0.06,0.07,0.12,0.13,0.2,0.18h-2
	c0.08-0.05,0.14-0.11,0.2-0.18c0.06-0.07,0.09-0.17,0.08-0.26v-6.85c0.01-0.09-0.02-0.19-0.08-0.26c-0.05-0.07-0.12-0.13-0.2-0.18
	h1.81l3,5l0,0v-4.56c0-0.09-0.03-0.18-0.08-0.26c-0.05-0.07-0.12-0.13-0.2-0.18h2c-0.08,0.05-0.15,0.11-0.2,0.18
	c-0.06,0.07-0.09,0.17-0.09,0.26v6.84c0,0.09,0.03,0.19,0.09,0.26c0.06,0.07,0.12,0.13,0.2,0.18h-1.7L143.22,37.16z"/>
<path class="st1" d="M150.64,40.6l-0.18,0.42c-0.05,0.15-0.11,0.3-0.16,0.47c-0.05,0.13-0.08,0.26-0.09,0.4
	c0,0.07,0.02,0.14,0.05,0.2l0.11,0.16h-2c0.09-0.09,0.17-0.19,0.24-0.29c0.07-0.11,0.13-0.23,0.17-0.35l2.27-5.85
	c0.06-0.15,0.11-0.3,0.17-0.47c0.05-0.13,0.08-0.26,0.09-0.4c0-0.07-0.02-0.14-0.06-0.2c0-0.06-0.07-0.11-0.1-0.16h1.59l2.82,7.08
	c0.05,0.12,0.11,0.24,0.18,0.35c0.07,0.1,0.15,0.2,0.24,0.29h-2c0.04-0.05,0.07-0.1,0.1-0.16c0.04-0.06,0.06-0.13,0.05-0.2
	c0-0.14-0.03-0.27-0.08-0.4c-0.05-0.17-0.11-0.32-0.17-0.47l-0.17-0.42H150.64z M153.24,39.32l-1.11-3v-0.1l-1,3.13L153.24,39.32z"
	/>
<path class="st1" d="M158.29,34.53c-0.07,0.05-0.14,0.11-0.19,0.18c-0.05,0.08-0.08,0.17-0.08,0.26v6h1.92
	c0.17,0.01,0.33-0.03,0.48-0.1c0.11-0.06,0.21-0.15,0.29-0.25v1.63h-4.44c0.07-0.05,0.14-0.11,0.2-0.18
	c0.05-0.08,0.08-0.17,0.08-0.26v-6.85c0-0.09-0.03-0.18-0.08-0.26c-0.06-0.07-0.12-0.13-0.2-0.18L158.29,34.53z"/>
<path class="st1" d="M168.57,42.42c-0.4,0.01-0.8-0.07-1.17-0.24c-0.33-0.14-0.62-0.35-0.86-0.61c-0.23-0.23-0.41-0.51-0.54-0.81
	c-0.12-0.28-0.18-0.58-0.18-0.88v-4.92c0-0.09-0.03-0.18-0.08-0.26c-0.05-0.07-0.12-0.13-0.2-0.18h2c-0.07,0.05-0.14,0.11-0.19,0.18
	c-0.05,0.08-0.08,0.17-0.08,0.26v4.51c-0.03,0.41,0.09,0.81,0.33,1.14c0.5,0.52,1.33,0.55,1.85,0.05c0.02-0.02,0.03-0.03,0.05-0.05
	c0.25-0.33,0.37-0.73,0.34-1.14v-4.51c0-0.09-0.03-0.18-0.08-0.26c-0.06-0.07-0.12-0.13-0.2-0.18h2c-0.07,0.05-0.14,0.11-0.19,0.18
	c-0.05,0.08-0.08,0.17-0.08,0.26v4.91c0,0.3-0.06,0.6-0.18,0.88c-0.12,0.3-0.31,0.58-0.54,0.81c-0.24,0.26-0.54,0.46-0.86,0.61
	C169.35,42.33,168.96,42.42,168.57,42.42z"/>
<path class="st1" d="M174.19,37.16L174.19,37.16v4.65c0,0.09,0.03,0.18,0.08,0.26c0.06,0.07,0.13,0.13,0.2,0.18h-2
	c0.07-0.05,0.14-0.11,0.2-0.18c0.05-0.08,0.08-0.17,0.08-0.26v-6.85c0-0.09-0.03-0.18-0.08-0.26c-0.06-0.07-0.12-0.13-0.2-0.18h1.8
	l3,5l0,0v-4.56c0.01-0.09-0.02-0.19-0.08-0.26c-0.05-0.07-0.12-0.13-0.2-0.18h2c-0.08,0.05-0.15,0.11-0.2,0.18
	c-0.05,0.08-0.07,0.17-0.05,0.26v6.84c-0.01,0.09,0.02,0.19,0.08,0.26c0.06,0.07,0.12,0.13,0.2,0.18h-1.7L174.19,37.16z"/>
<path class="st1" d="M179.95,42.25c0.08-0.05,0.14-0.11,0.2-0.18c0.06-0.07,0.09-0.17,0.09-0.26v-6.85c0-0.09-0.03-0.19-0.09-0.26
	c-0.05-0.07-0.12-0.13-0.2-0.18h2c-0.08,0.05-0.15,0.11-0.2,0.18c-0.03,0.08-0.03,0.17-0.01,0.26v6.84c0,0.09,0.03,0.18,0.08,0.26
	c0.06,0.07,0.12,0.13,0.2,0.18L179.95,42.25z"/>
<path class="st1" d="M189.74,34.53c-0.09,0.09-0.16,0.19-0.23,0.29c-0.08,0.11-0.14,0.22-0.18,0.35l-2.26,5.85
	c-0.06,0.15-0.12,0.3-0.18,0.47c-0.05,0.13-0.08,0.26-0.08,0.4c-0.01,0.07,0.01,0.14,0.05,0.2l0.11,0.16h-1.6l-2.77-7.08
	c-0.04-0.13-0.1-0.24-0.18-0.35c-0.07-0.1-0.14-0.2-0.23-0.29h2.08c-0.04,0.05-0.08,0.1-0.11,0.16c-0.02,0.07-0.02,0.13,0,0.2
	c0.01,0.14,0.04,0.27,0.09,0.4c0.06,0.17,0.12,0.32,0.17,0.47l1.6,4.42l0,0l1.63-4.42l0.16-0.47c0.05-0.13,0.08-0.26,0.09-0.4
	c0-0.07-0.02-0.14-0.05-0.2c0-0.06-0.07-0.11-0.1-0.16H189.74z"/>
<path class="st1" d="M189.74,42.25c0.08-0.05,0.14-0.11,0.2-0.18c0.06-0.07,0.09-0.17,0.08-0.26v-6.85
	c0.01-0.09-0.02-0.19-0.08-0.26c-0.05-0.07-0.12-0.13-0.2-0.18h4.76v1.64c-0.09-0.1-0.19-0.19-0.3-0.26
	c-0.15-0.07-0.31-0.1-0.47-0.09h-2.23v1.91h1.35c0.14,0,0.27-0.02,0.4-0.06c0.1-0.04,0.2-0.1,0.28-0.18v1.75
	c-0.08-0.08-0.18-0.13-0.28-0.17c-0.13-0.04-0.26-0.06-0.4-0.06h-1.35v2h2.24c0.16,0.01,0.33-0.02,0.47-0.1
	c0.12-0.06,0.22-0.15,0.3-0.25v1.63L189.74,42.25z"/>
<path class="st1" d="M199.28,42.25c0.06-0.07,0.11-0.15,0.15-0.23c0.03-0.09,0.05-0.18,0.05-0.28c0-0.28-0.06-0.56-0.17-0.82
	c-0.12-0.28-0.28-0.53-0.47-0.76c-0.22-0.24-0.48-0.45-0.76-0.62c-0.31-0.18-0.65-0.32-1-0.39v2.66c0,0.09,0.03,0.19,0.09,0.26
	c0.06,0.07,0.12,0.13,0.2,0.18h-2c0.08-0.05,0.14-0.11,0.2-0.18c0.05-0.08,0.08-0.17,0.08-0.26v-7.45c0.15,0.11,0.34,0.17,0.53,0.17
	c0.18,0,0.35-0.03,0.52-0.08c0.24-0.06,0.48-0.09,0.73-0.09c0.34-0.01,0.68,0.06,1,0.19c0.29,0.11,0.56,0.28,0.79,0.5
	c0.47,0.46,0.73,1.09,0.73,1.75c0.01,0.4-0.07,0.79-0.24,1.15c-0.2,0.33-0.54,0.56-0.92,0.61l0,0c0.31,0.07,0.61,0.2,0.87,0.38
	c0.25,0.18,0.47,0.39,0.66,0.63c0.18,0.25,0.33,0.52,0.45,0.81c0.11,0.28,0.19,0.58,0.23,0.88c0.02,0.23,0.08,0.46,0.17,0.68
	c0.06,0.11,0.13,0.21,0.23,0.29L199.28,42.25z M197.06,37.84c0.1,0.05,0.22,0.08,0.33,0.07c0.3,0.02,0.59-0.1,0.8-0.31
	c0.19-0.22,0.3-0.5,0.29-0.79c0-0.29-0.1-0.57-0.29-0.79c-0.21-0.22-0.5-0.33-0.8-0.32c-0.12,0-0.23,0.02-0.33,0.08V37.84z"/>
<path class="st1" d="M204.87,36.44L204.87,36.44c-0.11-0.23-0.28-0.43-0.48-0.59c-0.21-0.15-0.47-0.22-0.73-0.21
	c-0.18-0.01-0.35,0.05-0.49,0.17c-0.11,0.11-0.17,0.26-0.17,0.42c0,0.18,0.07,0.36,0.2,0.49c0.15,0.17,0.32,0.31,0.51,0.43
	l0.66,0.44c0.24,0.16,0.46,0.35,0.66,0.56c0.21,0.22,0.38,0.47,0.51,0.75c0.13,0.32,0.2,0.66,0.2,1c0,0.34-0.07,0.68-0.2,1
	c-0.13,0.3-0.32,0.57-0.57,0.79c-0.25,0.22-0.54,0.39-0.86,0.5c-0.35,0.12-0.72,0.17-1.09,0.17c-0.12,0.01-0.24,0.01-0.36,0
	l-0.33-0.06l-0.27-0.06c-0.07-0.01-0.13-0.01-0.2,0c-0.08-0.01-0.15,0.01-0.22,0.05l-0.16,0.12v-2.22l0,0
	c0.28,0.56,0.86,0.9,1.48,0.89c0.34,0.01,0.67-0.1,0.93-0.31c0.24-0.23,0.37-0.55,0.35-0.88c0.01-0.23-0.06-0.46-0.2-0.65
	c-0.14-0.19-0.31-0.35-0.5-0.48c-0.21-0.15-0.43-0.29-0.66-0.43c-0.24-0.14-0.46-0.3-0.67-0.49c-0.2-0.18-0.37-0.41-0.5-0.65
	c-0.15-0.29-0.22-0.61-0.21-0.93c0-0.27,0.05-0.53,0.16-0.78c0.1-0.23,0.24-0.43,0.42-0.6c0.19-0.17,0.41-0.3,0.65-0.38
	c0.26-0.09,0.53-0.14,0.81-0.14c0.09-0.01,0.17-0.01,0.26,0l0.26,0.06l0.23,0.06h0.17c0.08,0.02,0.15,0.02,0.23,0
	c0.07-0.03,0.13-0.07,0.18-0.13L204.87,36.44z"/>
<path class="st1" d="M206.59,42.25c0.08-0.05,0.15-0.11,0.21-0.18c0.05-0.08,0.08-0.17,0.08-0.26v-6.85c0-0.09-0.03-0.18-0.08-0.26
	c-0.06-0.07-0.13-0.13-0.21-0.18h2c-0.08,0.05-0.15,0.11-0.2,0.18c-0.05,0.08-0.08,0.17-0.08,0.26v6.84c0,0.09,0.03,0.18,0.08,0.26
	c0.06,0.07,0.12,0.13,0.2,0.18L206.59,42.25z"/>
<path class="st1" d="M214.07,34.53v1.73c-0.02-0.06-0.05-0.12-0.09-0.17c-0.04-0.06-0.1-0.11-0.17-0.14
	c-0.1-0.05-0.21-0.08-0.32-0.1c-0.17-0.02-0.35-0.02-0.52,0h-0.59v6c0,0.09,0.02,0.18,0.07,0.26c0.06,0.07,0.12,0.13,0.2,0.18h-2
	c0.08-0.05,0.14-0.11,0.2-0.18c0.06-0.07,0.09-0.17,0.09-0.26v-6h-0.61c-0.17-0.02-0.34-0.02-0.51,0c-0.11,0.02-0.21,0.05-0.31,0.1
	c-0.07,0.03-0.13,0.08-0.18,0.14c-0.04,0.05-0.07,0.11-0.09,0.17v-1.73H214.07z"/>
<path class="st1" d="M216.2,42.25c0.08-0.05,0.14-0.11,0.2-0.18c0.05-0.08,0.07-0.17,0.07-0.26v-3.25l-2-3.44l-0.21-0.33
	c-0.07-0.1-0.16-0.19-0.26-0.26h2.09l-0.1,0.11c-0.01,0.04-0.01,0.09,0,0.13c-0.01,0.06-0.01,0.13,0,0.19l0.12,0.25l1.12,2l0,0
	l1.12-2c0.09-0.13,0.15-0.28,0.17-0.44c0.01-0.04,0.01-0.09,0-0.13l-0.11-0.11h2.08c-0.11,0.07-0.2,0.16-0.27,0.26l-0.2,0.33
	l-2,3.44v3.25c0,0.09,0.03,0.19,0.09,0.26c0.06,0.07,0.12,0.13,0.2,0.18L216.2,42.25z"/>
<path class="st1" d="M226.74,41.81c0,0.09,0.02,0.18,0.07,0.26c0.06,0.07,0.12,0.13,0.2,0.18h-2c0.08-0.05,0.14-0.11,0.2-0.18
	c0.06-0.07,0.09-0.17,0.08-0.26v-7.45c0.04,0.05,0.09,0.09,0.15,0.13c0.06,0.01,0.13,0.01,0.19,0h0.27l0.39-0.06l0.45-0.06h0.44
	c0.4,0,0.79,0.07,1.16,0.21c0.64,0.27,1.15,0.79,1.4,1.44c0.14,0.35,0.21,0.72,0.2,1.1c0,0.36-0.07,0.73-0.21,1.06
	c-0.13,0.31-0.32,0.59-0.56,0.83c-0.24,0.23-0.52,0.41-0.83,0.53c-0.32,0.13-0.66,0.19-1,0.19h-0.33c-0.11-0.02-0.22-0.06-0.32-0.11
	L226.74,41.81z M226.74,38.23c0.07,0.05,0.15,0.09,0.23,0.11c0.1,0.02,0.2,0.02,0.3,0c0.37,0.02,0.73-0.11,1-0.36
	c0.46-0.59,0.46-1.41,0-2c-0.27-0.25-0.63-0.38-1-0.36c-0.19-0.01-0.38,0.05-0.53,0.16V38.23z"/>
<path class="st1" d="M234.86,42.42c-1.11,0-2.18-0.42-3-1.17c-0.38-0.36-0.69-0.8-0.91-1.28c-0.45-1-0.45-2.16,0-3.16
	c0.22-0.48,0.53-0.92,0.91-1.28c0.39-0.37,0.85-0.66,1.35-0.86c0.52-0.21,1.07-0.31,1.63-0.31c0.56,0,1.12,0.11,1.64,0.31
	c0.5,0.2,0.95,0.49,1.34,0.86c0.39,0.36,0.7,0.8,0.92,1.28c0.46,1,0.46,2.15,0,3.15c-0.22,0.48-0.53,0.92-0.92,1.28
	c-0.82,0.76-1.89,1.17-3,1.17L234.86,42.42z M234.86,35.75c-0.36-0.01-0.72,0.06-1.05,0.2c-0.33,0.13-0.62,0.32-0.88,0.56
	c-0.25,0.23-0.46,0.52-0.6,0.83c-0.15,0.31-0.23,0.65-0.23,1c0,0.35,0.08,0.69,0.23,1c0.14,0.32,0.35,0.6,0.6,0.84
	c0.26,0.24,0.55,0.43,0.88,0.56c0.33,0.14,0.69,0.21,1.05,0.2c0.36,0,0.72-0.06,1.06-0.2c0.33-0.13,0.63-0.32,0.88-0.56
	c0.25-0.24,0.46-0.52,0.61-0.84c0.14-0.31,0.22-0.65,0.22-1c0-0.35-0.08-0.69-0.22-1c-0.15-0.31-0.36-0.59-0.61-0.83
	c-0.25-0.24-0.55-0.43-0.88-0.56C235.58,35.81,235.22,35.75,234.86,35.75z"/>
<path class="st1" d="M243.89,42.25c0.06-0.07,0.11-0.14,0.14-0.23c0.04-0.09,0.06-0.18,0.06-0.28c0-0.28-0.06-0.56-0.17-0.82
	c-0.12-0.28-0.28-0.54-0.48-0.76c-0.47-0.52-1.09-0.87-1.77-1v2.66c0,0.09,0.03,0.18,0.08,0.26c0.06,0.07,0.13,0.13,0.2,0.18h-2
	c0.07-0.05,0.14-0.11,0.2-0.18c0.05-0.08,0.08-0.17,0.08-0.26v-7.46c0.15,0.11,0.34,0.17,0.53,0.17c0.18,0,0.35-0.03,0.52-0.08
	c0.24-0.06,0.48-0.09,0.73-0.09c0.34-0.01,0.68,0.06,1,0.19c0.29,0.11,0.56,0.28,0.79,0.5c0.22,0.22,0.4,0.48,0.53,0.77
	c0.14,0.32,0.21,0.66,0.2,1c0.01,0.4-0.07,0.79-0.24,1.15c-0.2,0.33-0.54,0.56-0.92,0.61l0,0c0.31,0.07,0.6,0.2,0.86,0.38
	c0.25,0.17,0.48,0.39,0.66,0.63c0.19,0.25,0.34,0.52,0.45,0.81c0.11,0.28,0.19,0.58,0.24,0.88c0.02,0.23,0.07,0.46,0.16,0.68
	c0.06,0.11,0.13,0.21,0.23,0.29H243.89z M241.67,37.84c0.1,0.05,0.22,0.08,0.33,0.07c0.3,0.02,0.59-0.09,0.79-0.31
	c0.2-0.21,0.31-0.5,0.3-0.79c0.01-0.29-0.1-0.58-0.3-0.79c-0.2-0.22-0.49-0.34-0.79-0.32c-0.12,0-0.23,0.02-0.33,0.08V37.84z"/>
<path class="st1" d="M250.63,34.53v1.73c-0.02-0.06-0.05-0.12-0.09-0.17c-0.04-0.06-0.1-0.11-0.17-0.14
	c-0.1-0.05-0.21-0.08-0.32-0.1c-0.17-0.02-0.34-0.02-0.51,0h-0.6v6c-0.01,0.09,0.02,0.19,0.08,0.26c0.05,0.07,0.12,0.13,0.19,0.18
	h-2c0.07-0.05,0.14-0.11,0.2-0.18c0.05-0.08,0.08-0.17,0.08-0.26v-6h-0.61c-0.17-0.02-0.34-0.02-0.51,0
	c-0.11,0.02-0.21,0.05-0.31,0.1c-0.07,0.03-0.13,0.08-0.18,0.14c-0.04,0.05-0.07,0.11-0.09,0.17v-1.73H250.63z"/>
<path class="st1" d="M252.86,40.6l-0.17,0.42c-0.06,0.15-0.12,0.3-0.17,0.47c-0.05,0.13-0.08,0.26-0.08,0.4
	c-0.01,0.07,0.01,0.14,0.05,0.2c0.03,0.06,0.06,0.11,0.1,0.16h-2l0.23-0.29c0.07-0.11,0.13-0.23,0.18-0.35l2.26-5.85
	c0.06-0.15,0.12-0.3,0.17-0.47c0.05-0.13,0.08-0.26,0.09-0.4c0-0.07-0.02-0.14-0.05-0.2l-0.11-0.16h1.62l2.82,7.08
	c0.04,0.13,0.1,0.24,0.18,0.35c0.07,0.1,0.14,0.2,0.23,0.29h-2l0.11-0.16c0.02-0.07,0.02-0.13,0-0.2c-0.01-0.14-0.04-0.27-0.09-0.4
	c-0.05-0.17-0.11-0.32-0.16-0.47l-0.18-0.42H252.86z M255.46,39.32l-1.11-3v-0.1l-1,3.13L255.46,39.32z"/>
<path class="st1" d="M260.52,34.53c-0.08,0.05-0.15,0.11-0.2,0.18c-0.05,0.08-0.07,0.17-0.07,0.26v6h1.91
	c0.17,0.01,0.33-0.03,0.48-0.1c0.11-0.06,0.21-0.15,0.29-0.25v1.63h-4.44c0.08-0.05,0.14-0.11,0.2-0.18
	c0.06-0.07,0.09-0.17,0.08-0.26v-6.85c0.01-0.09-0.02-0.19-0.08-0.26c-0.05-0.07-0.12-0.13-0.2-0.18L260.52,34.53z"/>
<g>
	<path class="st4" d="M39.55,11.79V8.66h4.65V1.21H23v7.45h9.38l0,0l0,1.15c0,0,1.4-0.53,1.93-0.39c0,0,0.2,0.6,0.23,0.83
		c0,0,2.2-1.29,3.2,1.81C37.74,12.05,39.12,11.66,39.55,11.79z"/>
	<path class="st4" d="M39.55,18.33l-0.02,6.67l-0.01,3.93c0.19,4,4.32,5.61,4.32,5.61v7.8c-4.33-0.41-7.94-4.56-7.94-4.56
		c-3.35,3.6-7.86,5.67-13.02,6.04v-7.17c0,0,8.85,0.19,9.44-9.61l0.01-3.4c0,0,1.64-1.13,2.11-2.7c0,0-0.3-0.33-0.53-0.47
		c0,0,0.9-0.5,0.51-2.2C34.42,18.28,37.72,19.09,39.55,18.33z"/>
	<path class="st4" d="M12.61,33.62c2.32,1.84,5.24,2.97,8.42,3.03v7.17c-4.56-0.06-8.78-1.56-12.2-4.06c0,0,2.66-1.28,3.8-3.88
		c0,0-0.13-0.3-0.56-0.47C12.06,35.42,13.07,34.52,12.61,33.62z"/>
	<path class="st4" d="M7.76,26.24c-0.23-0.88-0.38-1.79-0.44-2.73H0c0.13,3.16,1.08,6.12,2.44,8.77c0,0,1.2,0,1.99,0.68
		C4.44,32.96,3.88,29.83,7.76,26.24z"/>
	<path class="st4" d="M21.13,7.17v1.48C14,8.64,7.88,14.35,7.32,21.61H0c0.23-5.06,2.39-9.86,5.5-12.95l0.04-0.03L0,8.61v-7.4h21.13
		V7.17z"/>
	<g>
		<path class="st4" d="M1.36,34.52c0-0.83,0.68-1.5,1.51-1.5c0.83,0,1.51,0.68,1.5,1.51c0,0.83-0.68,1.51-1.51,1.5
			C2.03,36.03,1.35,35.35,1.36,34.52z M2.87,34.52 M2.86,35.21c0.38,0,0.68-0.31,0.69-0.68c0-0.38-0.3-0.69-0.68-0.69
			c-0.38,0-0.68,0.3-0.69,0.68C2.18,34.89,2.49,35.2,2.86,35.21z M2.87,34.52"/>
		<path class="st4" d="M8.93,33.97c0-0.83,0.68-1.51,1.51-1.5s1.51,0.68,1.5,1.51c0,0.83-0.68,1.51-1.51,1.5
			C9.6,35.48,8.92,34.81,8.93,33.97z M10.44,33.98 M10.43,34.66c0.38,0,0.68-0.3,0.69-0.68c0-0.38-0.3-0.68-0.68-0.69
			c-0.38,0-0.69,0.3-0.69,0.68C9.75,34.35,10.06,34.66,10.43,34.66z M10.44,33.98"/>
		<path class="st4" d="M12.08,27.05c0-0.83,0.68-1.51,1.51-1.5c0.83,0,1.51,0.68,1.5,1.51c0,0.83-0.68,1.51-1.51,1.5
			C12.75,28.56,12.08,27.88,12.08,27.05z M13.59,27.05 M13.59,27.74c0.38,0,0.68-0.3,0.68-0.68c0-0.38-0.31-0.68-0.68-0.69
			c-0.38,0-0.68,0.3-0.68,0.68C12.9,27.43,13.21,27.73,13.59,27.74z M13.59,27.05"/>
		<path class="st4" d="M19.95,26.47c0-0.83,0.68-1.51,1.51-1.5c0.83,0,1.5,0.68,1.5,1.51c0,0.83-0.68,1.51-1.51,1.51
			C20.62,27.98,19.95,27.3,19.95,26.47z M21.46,26.47 M21.46,27.16c0.38,0,0.69-0.3,0.69-0.68c0-0.38-0.3-0.69-0.68-0.69
			c-0.38,0-0.68,0.3-0.69,0.68C20.77,26.85,21.08,27.16,21.46,27.16z M21.46,26.47"/>
		<path class="st4" d="M23.04,19.55c0-0.83,0.68-1.51,1.51-1.5c0.83,0,1.5,0.68,1.5,1.51c0,0.83-0.68,1.51-1.51,1.51
			C23.71,21.06,23.03,20.38,23.04,19.55z M24.55,19.55 M24.54,20.23c0.38,0,0.68-0.3,0.69-0.68c0-0.38-0.31-0.68-0.68-0.68
			c-0.38,0-0.68,0.3-0.68,0.68C23.86,19.93,24.17,20.23,24.54,20.23z M24.55,19.55"/>
		<path class="st4" d="M30.84,19.03c0-0.83,0.68-1.51,1.52-1.5c0.83,0,1.5,0.68,1.5,1.51c-0.01,0.83-0.68,1.51-1.52,1.5
			C31.51,20.55,30.84,19.87,30.84,19.03z M32.35,19.04 M32.35,19.72c0.38,0,0.68-0.3,0.68-0.68c0-0.38-0.3-0.68-0.68-0.68
			c-0.38,0-0.69,0.3-0.69,0.68C31.66,19.42,31.97,19.72,32.35,19.72z M32.35,19.04"/>
		<path class="st4" d="M33.92,12.24c0-0.83,0.68-1.51,1.51-1.5c0.83,0,1.51,0.68,1.5,1.51c0,0.83-0.68,1.51-1.51,1.5
			C34.6,13.75,33.92,13.08,33.92,12.24z M35.43,12.25 M35.43,12.93c0.38,0,0.69-0.3,0.69-0.68c0-0.38-0.3-0.68-0.68-0.69
			c-0.38,0-0.69,0.3-0.69,0.68C34.75,12.62,35.05,12.93,35.43,12.93z M35.43,12.25"/>
		<path class="st4" d="M15.92,27.67c0,0-1.19-7.88,6.91-10.02C22.83,17.65,24.83,25.24,15.92,27.67z M22.26,19.32l-4.95,7.07
			c0,0,1.95-0.27,3.75-2.81c0,0,1.5-2.28,1.23-4.28L22.26,19.32z M21.71,18.87c-1.97,0.44-3.59,2.63-3.59,2.63
			c-1.77,2.56-1.35,4.49-1.35,4.49l4.92-7.08L21.71,18.87z"/>
		<path class="st4" d="M21.8,23.74c0,0,4.39-6.66,11.84-2.83C33.64,20.91,30.06,27.9,21.8,23.74z M32.11,21.77l-8.41,1.94
			c0,0,1.63,1.1,4.67,0.41c0,0,2.64-0.69,3.77-2.36L32.11,21.77z M31.99,21.07c-1.76-0.99-4.43-0.44-4.43-0.44
			c-3.03,0.72-4,2.43-4,2.43l8.4-1.97L31.99,21.07z"/>
		<path class="st4" d="M5.09,35.18c0,0-1.19-7.88,6.91-10.03C12,25.15,14.01,32.75,5.09,35.18z M11.44,26.82l-4.95,7.06
			c0,0,1.95-0.27,3.75-2.81c0,0,1.5-2.28,1.23-4.27L11.44,26.82z M10.88,26.37C8.92,26.81,7.3,29,7.3,29
			c-1.77,2.56-1.35,4.49-1.35,4.49l4.92-7.09L10.88,26.37z"/>
		<path class="st4" d="M10.84,31.31c0,0,4.39-6.65,11.84-2.83C22.68,28.48,19.1,35.47,10.84,31.31z M21.15,29.34l-8.4,1.94
			c0,0,1.63,1.11,4.66,0.42c0,0,2.64-0.69,3.77-2.36H21.15z M21.04,28.64c-1.76-0.99-4.43-0.45-4.43-0.45c-3.03,0.72-4,2.43-4,2.43
			l8.4-1.97L21.04,28.64z"/>
		<path class="st4" d="M26.87,20.1c0,0-1.19-7.88,6.91-10.03C33.79,10.08,35.79,17.68,26.87,20.1z M33.22,11.75l-4.95,7.07
			c0,0,1.95-0.27,3.75-2.81c0,0,1.5-2.28,1.23-4.28L33.22,11.75z M32.66,11.3c-1.97,0.44-3.59,2.63-3.59,2.63
			c-1.77,2.56-1.35,4.49-1.35,4.49l4.93-7.08L32.66,11.3z"/>
		<path class="st4" d="M32.56,16.51c0,0,4.39-6.65,11.84-2.83C44.4,13.67,40.81,20.67,32.56,16.51z M42.86,14.54l-8.41,1.94
			c0,0,1.63,1.1,4.66,0.41c0,0,2.63-0.69,3.77-2.35H42.86z M42.75,13.83c-1.76-0.99-4.43-0.45-4.43-0.45c-3.03,0.72-4,2.43-4,2.43
			l8.4-1.97L42.75,13.83z"/>
		<path class="st4" d="M0,38.96c0,0,4.32-6.69,11.82-2.94C11.82,36.02,8.29,43.04,0,38.96z M10.29,36.9L1.9,38.92
			c0,0,1.64,1.09,4.67,0.37c0,0,2.63-0.72,3.75-2.39L10.29,36.9z M10.17,36.19c-1.77-0.97-4.43-0.4-4.43-0.4
			c-3.02,0.75-3.98,2.47-3.98,2.47l8.38-2.05L10.17,36.19z"/>
	</g>
</g>
</svg>
